<svg width="128" height="128" viewBox="0 0 128 128" fill="none" xmlns="http://www.w3.org/2000/svg">
<circle cx="64" cy="64" r="64" fill="#F2A227"/>
<g clip-path="url(#clip0_3_8)">
<path d="M63.515 46.2051C54.0033 46.2051 46.3312 53.9201 46.3312 63.485C46.3312 73.0498 54.0033 80.7648 63.515 80.7648C73.0266 80.7648 80.6987 73.0498 80.6987 63.485C80.6987 53.9201 73.0266 46.2051 63.515 46.2051ZM63.515 74.7191C57.3683 74.7191 52.3433 69.6811 52.3433 63.485C52.3433 57.2889 57.3533 52.2508 63.515 52.2508C69.6766 52.2508 74.6866 57.2889 74.6866 63.485C74.6866 69.6811 69.6616 74.7191 63.515 74.7191V74.7191ZM85.4096 45.4982C85.4096 47.7391 83.615 49.5287 81.4016 49.5287C79.1732 49.5287 77.3935 47.724 77.3935 45.4982C77.3935 43.2725 79.1882 41.4678 81.4016 41.4678C83.615 41.4678 85.4096 43.2725 85.4096 45.4982ZM96.7906 49.5889C96.5364 44.1898 95.31 39.4074 91.3768 35.4672C87.4585 31.5269 82.7027 30.2937 77.3337 30.023C71.8002 29.7072 55.2147 29.7072 49.6813 30.023C44.3272 30.2787 39.5714 31.5119 35.6382 35.4521C31.7049 39.3924 30.4935 44.1748 30.2243 49.5738C29.9103 55.1383 29.9103 71.8166 30.2243 77.381C30.4786 82.7801 31.7049 87.5625 35.6382 91.5027C39.5714 95.443 44.3123 96.6762 49.6813 96.9469C55.2147 97.2627 71.8002 97.2627 77.3337 96.9469C82.7027 96.6912 87.4585 95.458 91.3768 91.5027C95.2951 87.5625 96.5214 82.7801 96.7906 77.381C97.1047 71.8166 97.1047 55.1533 96.7906 49.5889V49.5889ZM89.642 83.3516C88.4754 86.2992 86.2172 88.5701 83.271 89.7582C78.8592 91.5178 68.3904 91.1117 63.515 91.1117C58.6395 91.1117 48.1558 91.5027 43.7589 89.7582C40.8277 88.5852 38.5694 86.3143 37.3879 83.3516C35.6382 78.915 36.042 68.3877 36.042 63.485C36.042 58.5822 35.6531 48.0398 37.3879 43.6184C38.5545 40.6707 40.8127 38.3998 43.7589 37.2117C48.1708 35.4521 58.6395 35.8582 63.515 35.8582C68.3904 35.8582 78.8741 35.4672 83.271 37.2117C86.2022 38.3848 88.4605 40.6557 89.642 43.6184C91.3917 48.0549 90.9879 58.5822 90.9879 63.485C90.9879 68.3877 91.3917 78.9301 89.642 83.3516Z" fill="white"/>
</g>
<defs>
<clipPath id="clip0_3_8">
<rect width="67" height="77" fill="white" transform="translate(30 25)"/>
</clipPath>
</defs>
</svg>
