<svg width="128" height="128" viewBox="0 0 128 128" fill="none" xmlns="http://www.w3.org/2000/svg">
<circle cx="64" cy="64" r="64" fill="#063D69"/>
<g clip-path="url(#clip0_3_16)">
<path d="M63.5158 45.3066C53.4364 45.3066 45.3062 53.4225 45.3062 63.4842C45.3062 73.5459 53.4364 81.6617 63.5158 81.6617C73.5953 81.6617 81.7254 73.5459 81.7254 63.4842C81.7254 53.4225 73.5953 45.3066 63.5158 45.3066ZM63.5158 75.302C57.0022 75.302 51.6772 70.0022 51.6772 63.4842C51.6772 56.9662 56.9864 51.6664 63.5158 51.6664C70.0453 51.6664 75.3544 56.9662 75.3544 63.4842C75.3544 70.0022 70.0294 75.302 63.5158 75.302V75.302ZM86.7176 44.5631C86.7176 46.9203 84.8158 48.8029 82.4703 48.8029C80.1089 48.8029 78.223 46.9045 78.223 44.5631C78.223 42.2217 80.1248 40.3232 82.4703 40.3232C84.8158 40.3232 86.7176 42.2217 86.7176 44.5631ZM98.7781 48.8662C98.5087 43.1867 97.2091 38.1559 93.0411 34.0109C88.8888 29.866 83.8491 28.5688 78.1596 28.284C72.2957 27.9518 54.7201 27.9518 48.8562 28.284C43.1826 28.5529 38.1428 29.8502 33.9748 33.9951C29.8067 38.14 28.523 43.1709 28.2377 48.8504C27.9049 54.7039 27.9049 72.2486 28.2377 78.1022C28.5071 83.7816 29.8067 88.8125 33.9748 92.9574C38.1428 97.1024 43.1667 98.3996 48.8562 98.6844C54.7201 99.0166 72.2957 99.0166 78.1596 98.6844C83.8491 98.4154 88.8888 97.1182 93.0411 92.9574C97.1933 88.8125 98.4928 83.7816 98.7781 78.1022C99.1109 72.2486 99.1109 54.7197 98.7781 48.8662V48.8662ZM91.2027 84.3828C89.9665 87.4836 87.5734 89.8725 84.4513 91.1223C79.7761 92.9733 68.6823 92.5461 63.5158 92.5461C58.3493 92.5461 47.2397 92.9574 42.5803 91.1223C39.4741 89.8883 37.081 87.4994 35.829 84.3828C33.9748 79.7158 34.4027 68.6416 34.4027 63.4842C34.4027 58.3268 33.9906 47.2367 35.829 42.5856C37.0652 39.4848 39.4582 37.0959 42.5803 35.8461C47.2556 33.9951 58.3493 34.4223 63.5158 34.4223C68.6823 34.4223 79.7919 34.0109 84.4513 35.8461C87.5576 37.0801 89.9507 39.469 91.2027 42.5856C93.0569 47.2525 92.629 58.3268 92.629 63.4842C92.629 68.6416 93.0569 79.7316 91.2027 84.3828Z" fill="white"/>
</g>
<defs>
<clipPath id="clip0_3_16">
<rect width="71" height="81" fill="white" transform="translate(28 23)"/>
</clipPath>
</defs>
</svg>
