<svg width="128" height="128" viewBox="0 0 128 128" fill="none" xmlns="http://www.w3.org/2000/svg">
<circle cx="64" cy="64" r="64" fill="#F2A227"/>
<path d="M87.965 39.6029C81.6987 33.2865 73.3536 29.8125 64.485 29.8125C46.1797 29.8125 31.2842 44.7914 31.2842 63.1992C31.2842 69.0795 32.8096 74.8244 35.7109 79.8926L31 97.1875L48.6025 92.5404C53.448 95.2023 58.9067 96.601 64.4701 96.601H64.485C82.7754 96.601 98 81.6221 98 63.2143C98 54.2961 94.2312 45.9193 87.965 39.6029ZM64.485 90.9764C59.5199 90.9764 54.6594 89.6379 50.427 87.1113L49.425 86.5098L38.9862 89.2619L41.7679 79.0203L41.1098 77.9676C38.3431 73.5461 36.8924 68.4479 36.8924 63.1992C36.8924 47.9045 49.2754 35.4521 64.5 35.4521C71.873 35.4521 78.7973 38.3396 84.0018 43.5883C89.2062 48.8369 92.4067 55.8 92.3917 63.2143C92.3917 78.524 79.6946 90.9764 64.485 90.9764ZM79.6199 70.1924C78.7973 69.7713 74.7145 67.7561 73.9518 67.4854C73.1891 67.1996 72.6357 67.0643 72.0824 67.9064C71.529 68.7486 69.9437 70.6135 69.4502 71.185C68.9717 71.7414 68.4781 71.8166 67.6556 71.3955C62.7801 68.9441 59.5797 67.0191 56.3643 61.4697C55.5118 59.9959 57.2167 60.1012 58.802 56.9129C59.0712 56.3564 58.9366 55.8752 58.7272 55.4541C58.5179 55.033 56.8578 50.9273 56.1699 49.258C55.4969 47.6338 54.8089 47.8594 54.3004 47.8293C53.8219 47.7992 53.2685 47.7992 52.7152 47.7992C52.1618 47.7992 51.2645 48.0098 50.5018 48.8369C49.7391 49.6791 47.6004 51.6943 47.6004 55.8C47.6004 59.9057 50.5766 63.876 50.9804 64.4324C51.3991 64.9889 56.8279 73.4107 65.158 77.0352C70.4223 79.3211 72.4862 79.5166 75.1183 79.1256C76.7185 78.885 80.0237 77.1104 80.7116 75.1553C81.3996 73.2002 81.3996 71.5309 81.1902 71.185C80.9958 70.809 80.4424 70.5984 79.6199 70.1924Z" fill="white"/>
</svg>
